<?xml version="1.0" encoding="utf-8"?>
<svg version="1.1" xmlns:xlink="http://www.w3.org/1999/xlink" width="10px" height="10px" xmlns="http://www.w3.org/2000/svg">
  <g transform="matrix(1 0 0 1 -29 -20 )">
    <path d="M 34 21  C 36.24 21  38 22.759999999999998  38 25  C 38 27.240000000000002  36.24 29  34 29  C 31.759999999999998 29  30 27.240000000000002  30 25  C 30 22.759999999999998  31.759999999999998 21  34 21  Z " fill-rule="nonzero" fill="#f9f9f9" stroke="none" />
    <path d="M 34 21  C 36.24 21  38 22.759999999999998  38 25  C 38 27.240000000000002  36.24 29  34 29  C 31.759999999999998 29  30 27.240000000000002  30 25  C 30 22.759999999999998  31.759999999999998 21  34 21  Z " stroke-width="2" stroke="#0079fe" fill="none" />
  </g>
</svg>